<svg width="22" height="25" xmlns="http://www.w3.org/2000/svg" xmlns:xlink="http://www.w3.org/1999/xlink" overflow="hidden"><defs><clipPath id="clip0"><rect x="771" y="236" width="22" height="25"/></clipPath></defs><g clip-path="url(#clip0)" transform="translate(-771 -236)"><path d="M21.84 17.3793C21.84 21.4929 18.4552 24.8276 14.28 24.8276L3.17802e-13 24.8276 3.17802e-13 19.862 14.28 19.862C15.6717 19.862 16.8 18.7505 16.8 17.3793 16.8 16.0081 15.6717 14.8966 14.28 14.8966L9.24 14.8966 9.24 9.93102 14.28 9.93102C15.6717 9.93102 16.8 8.81945 16.8 7.44827 16.8 6.07709 15.6717 4.96552 14.28 4.96552L3.17802e-13 4.96552 3.17802e-13 9.51461e-12 14.28 9.51461e-12C18.4552 9.51461e-12 21.84 3.3347 21.84 7.44827 21.84 9.35594 21.1121 11.096 19.915 12.4138 21.1121 13.7316 21.84 15.4716 21.84 17.3793Z" fill="#FE815F" fillRule="evenodd" fill-opacity="0.8" transform="matrix(1.00571 0 0 1 771 236)"/><path d="M1.66534e-14 19.862 12.2651 19.862C9.65977 22.8773 5.5119 24.8276 0.84 24.8276 0.558016 24.8276 0.277941 24.8205 1.66534e-14 24.8065L1.66534e-14 19.862 1.66534e-14 19.862ZM14.8344 14.8966 10.08 14.8966 10.08 9.93102 14.8344 9.93102C15.0216 10.7332 15.12 11.5635 15.12 12.4138 15.12 13.2641 15.0216 14.0944 14.8344 14.8966ZM12.2651 4.96552 9.04828e-13 4.96552 9.04828e-13 0.0211207C0.277941 0.00710512 0.558016 0 0.84 0 5.5119 0 9.65977 1.95034 12.2651 4.96552L12.2651 4.96552Z" fill="#000000" fill-opacity="0.12" transform="matrix(1.00571 0 0 1 771 236)"/><path d="M2.90046e-13 9.5257e-12C6.95879 9.5257e-12 12.6 5.55784 12.6 12.4138 12.6 19.2698 6.95879 24.8276 2.90046e-13 24.8276L2.90046e-13 19.862C4.17527 19.862 7.56 16.5273 7.56 12.4138 7.56 8.30023 4.17527 4.96552 2.90046e-13 4.96552L2.90046e-13 9.5257e-12Z" fill="#FF6238" transform="matrix(1.00571 0 0 1 771 236)"/></g></svg>
